<?xml version="1.0" standalone="no"?>
<!DOCTYPE svg PUBLIC "-//W3C//DTD SVG 20010904//EN"
 "http://www.w3.org/TR/2001/REC-SVG-20010904/DTD/svg10.dtd">
<svg version="1.0" xmlns="http://www.w3.org/2000/svg"
 width="150.000000pt" height="150.000000pt" viewBox="0 0 150.000000 150.000000"
 preserveAspectRatio="xMidYMid meet">
<metadata>
Created by potrace 1.14, written by Peter Selinger 2001-2017
</metadata>
<g transform="translate(0.000000,150.000000) scale(0.100000,-0.100000)"
fill="#000000" stroke="none">
<path d="M715 1454 c-35 -18 -124 -90 -143 -116 -7 -9 -19 -23 -27 -31 -8 -8
-11 -17 -8 -21 4 -3 2 -6 -4 -6 -17 0 -72 -122 -93 -206 -11 -44 -27 -84 -36
-91 -33 -24 -69 -60 -99 -97 -16 -20 -34 -43 -40 -49 -14 -17 -52 -96 -70
-148 -21 -59 -31 -189 -17 -216 10 -17 83 -60 117 -68 6 -1 17 -5 25 -8 49
-18 116 -26 195 -22 93 4 136 12 194 38 32 14 39 13 105 -10 117 -42 335 -41
385 0 8 7 16 11 18 9 8 -6 78 30 95 50 50 58 -15 305 -108 413 -14 17 -29 35
-32 40 -4 6 -28 28 -54 49 -35 28 -48 45 -48 65 0 14 -5 44 -11 66 -14 55 -70
175 -80 175 -5 0 -9 7 -9 15 0 8 -4 15 -10 15 -5 0 -10 5 -10 10 0 24 -166
160 -195 160 -5 0 -23 -7 -40 -16z m112 -203 c33 -36 99 -151 87 -151 -4 0 -1
-7 6 -15 12 -14 10 -15 -16 -10 -72 16 -113 21 -169 19 -65 -2 -132 -11 -146
-20 -18 -11 -8 25 22 84 16 33 48 77 70 98 22 22 46 44 52 51 15 15 49 -5 94
-56z m68 -314 c44 -15 49 -31 32 -97 -24 -95 -134 -250 -177 -250 -43 0 -152
153 -177 250 -17 67 -12 84 31 98 22 7 56 15 75 18 20 3 37 7 38 8 7 6 143
-15 178 -27z m-398 -265 c15 -29 47 -75 71 -102 l43 -49 -28 -8 c-47 -13 -167
-7 -220 11 -50 17 -67 33 -58 59 2 6 7 26 9 42 7 40 62 143 94 178 l27 28 17
-53 c10 -29 30 -77 45 -106z m628 83 c32 -50 52 -100 61 -152 2 -15 7 -34 9
-40 11 -31 -105 -62 -215 -58 -45 2 -84 5 -86 8 -2 2 15 28 39 58 57 70 90
131 113 201 20 67 27 65 79 -17z"/>
<path d="M137 1248 c-94 -55 -100 -196 -12 -257 80 -55 185 -29 225 54 26 53
25 88 -1 142 -38 78 -134 105 -212 61z"/>
<path d="M1224 1253 c-11 -7 -29 -20 -41 -29 -28 -21 -55 -90 -50 -131 15
-124 164 -178 260 -95 37 32 56 97 44 147 -3 11 -6 23 -6 27 -2 16 -56 71 -80
80 -38 16 -106 16 -127 1z"/>
<path d="M709 340 c-102 -30 -146 -143 -90 -233 62 -100 213 -89 270 20 13 26
20 103 9 103 -4 0 -8 6 -8 14 0 21 -49 76 -77 87 -38 14 -76 18 -104 9z"/>
</g>
</svg>
